Coordinates
version=1
nRows=9
nColumns=24
inDegrees=yes

Units are S.I. units (second, meters, Newtons, ...)
Angles are in degrees.

endheader
time	pelvis_tilt	pelvis_list	pelvis_rotation	pelvis_tx	pelvis_ty	pelvis_tz	hip_flexion_r	hip_adduction_r	hip_rotation_r	knee_angle_r	ankle_angle_r	subtalar_angle_r	mtp_angle_r	hip_flexion_l	hip_adduction_l	hip_rotation_l	knee_angle_l	ankle_angle_l	subtalar_angle_l	mtp_angle_l	lumbar_extension	lumbar_bending	lumbar_rotation
      6.20000000	     36.26519962	      3.21747191	      5.17274887	      1.51610987	      0.67703158	     -0.29730399	    -16.60332368	     -4.59763910	    -13.38862932	    -51.94479677	     17.01032778	      4.85117208	      0.00000000	    -32.45777351	      1.12650850	      3.15200979	    -15.83181328	     19.43638750	     10.30599815	      0.00000000	    -64.53469434	      1.86922048	     -4.52060585
      6.20500000	     36.22127073	      3.22097016	      5.23487041	      1.52060893	      0.67703849	     -0.29724177	    -16.17067820	     -4.57944813	    -13.43144724	    -50.59947435	     17.23402027	      4.91295997	      0.00000000	    -33.02935809	      1.03248947	      3.11878772	    -15.47520109	     19.64977405	     10.40161291	      0.00000000	    -64.60596714	      1.95937594	     -4.65159301
      6.21000000	     36.06876335	      3.25679715	      5.23042734	      1.52506172	      0.67689711	     -0.29708769	    -15.59824555	     -4.62747126	    -13.40905246	    -49.25974330	     17.43700627	      4.91811655	      0.00000000	    -33.45100554	      1.02473875	      3.08908686	    -15.17935494	     19.83071350	     10.37771399	      0.00000000	    -64.59775256	      1.95264856	     -4.78930490
      6.21500000	     35.92552651	      3.28228490	      5.22969348	      1.52953181	      0.67670992	     -0.29695960	    -15.07431885	     -4.67044110	    -13.40448788	    -47.83559004	     17.56908059	      4.94788738	      0.00000000	    -33.87826806	      1.00514976	      3.03794963	    -14.89592137	     20.04978298	     10.41297046	      0.00000000	    -64.58760531	      1.97211199	     -4.92011509
      6.22000000	     35.99276782	      3.31694274	      5.33647837	      1.53406029	      0.67662259	     -0.29680340	    -14.89900103	     -4.64281560	    -13.52635794	    -46.23038746	     17.59476704	      4.93124024	      0.00000000	    -34.56073729	      0.87910384	      3.00739396	    -14.56619685	     20.33212272	     10.65047649	      0.00000000	    -64.77406580	      2.05876183	     -5.05791605
      6.22500000	     35.81406418	      3.37325033	      5.27894021	      1.53851643	      0.67628409	     -0.29663515	    -14.37346960	     -4.74911651	    -13.49816055	    -44.70944233	     17.62746336	      4.95157431	      0.00000000	    -34.92439027	      0.93362493	      2.93693850	    -14.34062795	     20.54862324	     10.60648786	      0.00000000	    -64.73514656	      2.01949591	     -5.20206305
      6.23000000	     35.72890384	      3.40382282	      5.32939279	      1.54301777	      0.67598425	     -0.29643803	    -14.04375436	     -4.76011723	    -13.56973813	    -43.03353345	     17.52765319	      4.95205519	      0.00000000	    -35.38831775	      0.86102040	      2.84410944	    -14.11368078	     20.86435833	     10.80898479	      0.00000000	    -64.78335532	      2.06388517	     -5.32966488
      6.23500000	     35.67104275	      3.47282060	      5.33674363	      1.54752676	      0.67563565	     -0.29620406	    -13.77248247	     -4.82146898	    -13.62389943	    -41.30571584	     17.43007327	      4.96297335	      0.00000000	    -35.88294935	      0.85050795	      2.76075806	    -13.89712270	     21.12590981	     10.92125377	      0.00000000	    -64.85584796	      2.05883042	     -5.50753530
      6.24000000	     35.48920214	      3.60038331	      5.24484982	      1.55197937	      0.67511617	     -0.29591305	    -13.32962584	     -4.99583409	    -13.58032441	    -39.61905303	     17.35660825	      4.99526628	      0.00000000	    -36.21907344	      0.98270497	      2.68267412	    -13.72770098	     21.36279667	     10.88520406	      0.00000000	    -64.82227683	      1.92635158	     -5.65035394
